<svg width="115" height="123" viewBox="0 0 115 123" fill="none" xmlns="http://www.w3.org/2000/svg">
<path d="M98.0073 89.5685C93.0073 99.0685 73.0073 110.569 27.5073 109.569L30.5073 95.5685C30.5073 95.5685 68.5489 100.54 79.0073 85.5685C82.6901 80.2963 83.8864 77.3193 79.0073 70.5685C77.187 68.0501 73.1111 65.876 68.5073 65.0685C64.7662 64.4124 59.8126 64.5182 57.5073 63.0685C56.2698 62.2904 56.5073 60.9111 56.5073 59.0685C56.5073 56.4978 57.3956 51.5871 60.5073 51.0685C66.5073 50.0685 71.0073 51.0685 77.0073 49.0685C87.2755 46.192 94.8168 42.1702 95.5073 32.5685C96.3336 21.0768 85.0073 14.5685 66.0073 14.5685C54.6401 14.5685 51.2482 16.1806 42.5073 17.5685C32.8015 19.1096 25.0073 23.5685 19.0073 26.5685C16.0073 28.0685 9.88263 31.419 7.50726 28.5685C6.63569 27.5226 6.08946 25.6699 6.00727 23.5685C5.92761 21.5315 6.50727 20.0685 7.50726 18.5685C9.17392 16.0685 14.7008 12.1911 22.5073 9.06852C52.5073 -2.93148 73.6336 -0.4136 87.5072 2.06852C106.818 5.52337 115.918 16.7236 114.507 32.5685C113.849 39.9597 107.162 48.9435 99.5073 53.0685C91.4534 57.4088 85.0073 58.5685 85.0073 58.5685C85.0073 58.5685 95.2867 61.1672 98.5073 68.0685C102.007 75.5685 100.543 84.7503 98.0073 89.5685Z" fill="#226699"/>
<path d="M96.0073 91.5685C91.0073 101.068 74.0073 113.069 28.5073 112.069L30.5073 97.5685C30.5073 97.5685 66.5489 102.54 77.0073 87.5685C80.6901 82.2963 81.8864 79.3193 77.0073 72.5685C75.187 70.0501 71.1111 67.876 66.5073 67.0685C62.7662 66.4124 57.8126 66.5182 55.5073 65.0685C54.2698 64.2904 54.5073 62.9111 54.5073 61.0685C54.5073 58.4978 55.3956 53.5871 58.5073 53.0685C64.5073 52.0685 69.0073 53.0685 75.0073 51.0685C85.2755 48.192 92.8168 44.1702 93.5073 34.5685C94.3336 23.0768 83.0073 16.5685 64.0073 16.5685C52.6401 16.5685 49.2482 18.1806 40.5073 19.5685C30.8015 21.1096 23.0073 25.5685 17.0073 28.5685C14.0073 30.0685 7.88263 33.419 5.50726 30.5685C4.63569 29.5226 4.08946 27.6699 4.00727 25.5685C3.92761 23.5315 4.50727 22.0685 5.50726 20.5685C7.17392 18.0685 12.7008 14.1911 20.5073 11.0685C50.5073 -0.931477 71.6336 1.5864 85.5072 4.06852C104.818 7.52337 113.918 18.7236 112.507 34.5685C111.849 41.9597 105.162 50.9435 97.5073 55.0685C89.4534 59.4088 83.0073 60.5685 83.0073 60.5685C83.0073 60.5685 93.2867 63.1672 96.5073 70.0685C100.007 77.5685 98.5431 86.7503 96.0073 91.5685Z" fill="#CCD6DD"/>
<path d="M94.0073 93.5685C89.0073 103.068 75.0073 114.569 29.5073 113.569L30.5073 99.5685C30.5073 99.5685 64.5489 104.54 75.0073 89.5685C78.6901 84.2963 79.8864 81.3193 75.0073 74.5685C73.187 72.0501 69.1111 69.876 64.5073 69.0685C60.7662 68.4124 55.8126 68.5182 53.5073 67.0685C52.2698 66.2904 52.5073 64.9111 52.5073 63.0685C52.5073 60.4978 53.3956 55.5871 56.5073 55.0685C62.5073 54.0685 67.0073 55.0685 73.0073 53.0685C83.2755 50.192 90.8168 46.1702 91.5073 36.5685C92.3336 25.0768 81.0073 18.5685 62.0073 18.5685C50.6401 18.5685 47.2482 20.1806 38.5073 21.5685C28.8015 23.1096 21.0073 27.5685 15.0073 30.5685C12.0073 32.0685 5.88263 35.419 3.50726 32.5685C2.63569 31.5226 2.08946 29.6699 2.00727 27.5685C1.92761 25.5315 2.50727 24.0685 3.50726 22.5685C5.17392 20.0685 10.7008 16.1911 18.5073 13.0685C48.5073 1.06852 69.6336 3.5864 83.5072 6.06852C102.818 9.52337 111.918 20.7236 110.507 36.5685C109.849 43.9597 103.162 52.9435 95.5073 57.0685C87.4534 61.4088 81.0073 62.5685 81.0073 62.5685C81.0073 62.5685 91.2867 65.1672 94.5073 72.0685C98.0073 79.5685 96.5431 88.7503 94.0073 93.5685Z" fill="#E1E8ED"/>
<path d="M92.0073 95.5685C87.0073 105.068 75.5073 117.069 30.0073 116.069L30.5073 101.569C30.5073 101.569 62.5489 106.54 73.0073 91.5685C76.6901 86.2963 77.8864 83.3193 73.0073 76.5685C71.187 74.0501 67.1111 71.876 62.5073 71.0685C58.7662 70.4124 53.8126 70.5182 51.5073 69.0685C50.2698 68.2904 50.5073 66.9111 50.5073 65.0685C50.5073 62.4978 51.3956 57.5871 54.5073 57.0685C60.5073 56.0685 65.0073 57.0685 71.0073 55.0685C81.2755 52.192 88.8168 48.1702 89.5073 38.5685C90.3336 27.0768 79.0073 20.5685 60.0073 20.5685C48.6401 20.5685 45.2482 22.1806 36.5073 23.5685C26.8015 25.1096 19.0073 29.5685 13.0073 32.5685C10.0073 34.0685 3.88263 37.419 1.50726 34.5685C0.635693 33.5226 0.0894584 31.6699 0.00727321 29.5685C-0.0723939 27.5315 0.507272 26.0685 1.50726 24.5685C3.17392 22.0685 8.70084 18.1911 16.5073 15.0685C46.5073 3.06852 67.6336 5.5864 81.5072 8.06852C100.818 11.5234 109.918 22.7236 108.507 38.5685C107.849 45.9597 101.162 54.9435 93.5073 59.0685C85.4534 63.4088 79.0073 64.5685 79.0073 64.5685C79.0073 64.5685 89.2867 67.1672 92.5073 74.0685C96.0073 81.5685 94.5431 90.7503 92.0073 95.5685Z" fill="#55ACEE"/>
<path d="M42.5073 40.5685C43.5661 36.5685 42.5073 33.5685 37.5073 33.5685C29.0073 34.5685 26.0073 33.5685 23.5073 43.5685C20.117 57.1298 18.2564 64.772 16.0073 78.5685C13.7625 92.3381 12.0073 114.069 12.0073 114.069C11.5073 119.569 13.3611 122.163 17.0073 122.569C21.5072 123.069 22.2863 123.151 26.5073 121.569C30.5073 120.069 30.5073 116.069 30.5073 116.069C30.5073 103.069 31.665 93.4829 34.0073 78.5685C36.4619 62.9391 38.0072 57.5685 42.5073 40.5685Z" fill="#226699"/>
</svg>
