<svg width="437" height="128" viewBox="0 0 437 128" fill="none" xmlns="http://www.w3.org/2000/svg">
<path d="M109.104 39.08C109.104 46.3333 106.544 52.6053 101.424 57.896C96.304 63.1013 88.8373 66.856 79.024 69.16C84.3147 70.6107 88.3253 73 91.056 76.328C93.7867 79.5707 95.152 83.3253 95.152 87.592C95.152 94.3333 93.0187 100.179 88.752 105.128C84.5707 110.077 78.4267 113.917 70.32 116.648C62.2133 119.293 52.4427 120.616 41.008 120.616C36.7413 120.616 33.328 120.488 30.768 120.232C30.6827 122.621 29.6587 124.413 27.696 125.608C25.7333 126.803 23.216 127.4 20.144 127.4C17.072 127.4 14.9387 126.717 13.744 125.352C12.6347 123.987 12.1653 121.981 12.336 119.336C13.104 107.389 14.5973 94.888 16.816 81.832C19.0347 68.6907 21.8507 56.0187 25.264 43.816C25.8613 41.6827 27.056 40.1893 28.848 39.336C30.64 38.4827 32.9867 38.056 35.888 38.056C41.0933 38.056 43.696 39.5067 43.696 42.408C43.696 43.6027 43.44 44.968 42.928 46.504C40.7093 53.16 38.4907 62.2053 36.272 73.64C34.0533 84.9893 32.4747 95.8267 31.536 106.152C35.632 106.493 38.96 106.664 41.52 106.664C53.4667 106.664 62.2133 104.957 67.76 101.544C73.392 98.0453 76.208 93.608 76.208 88.232C76.208 84.4773 74.5867 81.32 71.344 78.76C68.1867 76.2 62.8533 74.792 55.344 74.536C53.6373 74.4507 52.4427 74.024 51.76 73.256C51.0773 72.488 50.736 71.2507 50.736 69.544C50.736 67.0693 51.248 65.064 52.272 63.528C53.296 61.992 55.1733 61.1813 57.904 61.096C63.9627 60.9253 69.424 60.0293 74.288 58.408C79.2373 56.7867 83.12 54.5253 85.936 51.624C88.752 48.6373 90.16 45.1813 90.16 41.256C90.16 36.3067 87.728 32.424 82.864 29.608C78 26.7067 70.5333 25.256 60.464 25.256C51.3333 25.256 42.5013 26.4507 33.968 28.84C25.4347 31.144 18.1813 34.088 12.208 37.672C9.47733 39.2933 7.17333 40.104 5.296 40.104C3.76 40.104 2.56533 39.592 1.712 38.568C0.944 37.4587 0.56 36.0933 0.56 34.472C0.56 32.3387 0.986667 30.504 1.84 28.968C2.77867 27.432 4.95467 25.6827 8.368 23.72C15.536 19.624 23.9413 16.424 33.584 14.12C43.2267 11.816 53.0827 10.664 63.152 10.664C78.5973 10.664 90.1173 13.2667 97.712 18.472C105.307 23.6773 109.104 30.5467 109.104 39.08ZM170.799 81.704C171.908 81.704 172.762 82.2587 173.359 83.368C173.956 84.4773 174.255 85.8853 174.255 87.592C174.255 91.688 173.018 94.12 170.543 94.888C165.423 96.68 159.791 97.704 153.647 97.96C152.026 105.128 148.826 110.888 144.047 115.24C139.268 119.507 133.85 121.64 127.791 121.64C122.671 121.64 118.276 120.403 114.607 117.928C111.023 115.453 108.292 112.168 106.415 108.072C104.538 103.976 103.599 99.5387 103.599 94.76C103.599 88.2747 104.836 82.5147 107.311 77.48C109.786 72.36 113.199 68.392 117.551 65.576C121.903 62.6747 126.724 61.224 132.015 61.224C138.5 61.224 143.706 63.4853 147.631 68.008C151.642 72.4453 153.988 77.9493 154.671 84.52C158.682 84.264 163.46 83.4107 169.007 81.96C169.69 81.7893 170.287 81.704 170.799 81.704ZM128.815 108.072C131.546 108.072 133.892 106.963 135.855 104.744C137.903 102.525 139.268 99.3253 139.951 95.144C137.306 93.352 135.258 91.0053 133.807 88.104C132.442 85.2027 131.759 82.1307 131.759 78.888C131.759 77.5227 131.887 76.1573 132.143 74.792H131.503C128.09 74.792 125.231 76.456 122.927 79.784C120.708 83.0267 119.599 87.6347 119.599 93.608C119.599 98.3013 120.495 101.885 122.287 104.36C124.164 106.835 126.34 108.072 128.815 108.072ZM228.549 81.704C229.658 81.704 230.512 82.2587 231.109 83.368C231.706 84.4773 232.005 85.8853 232.005 87.592C232.005 91.688 230.768 94.12 228.293 94.888C223.173 96.68 217.541 97.704 211.397 97.96C209.776 105.128 206.576 110.888 201.797 115.24C197.018 119.507 191.6 121.64 185.541 121.64C180.421 121.64 176.026 120.403 172.357 117.928C168.773 115.453 166.042 112.168 164.165 108.072C162.288 103.976 161.349 99.5387 161.349 94.76C161.349 88.2747 162.586 82.5147 165.061 77.48C167.536 72.36 170.949 68.392 175.301 65.576C179.653 62.6747 184.474 61.224 189.765 61.224C196.25 61.224 201.456 63.4853 205.381 68.008C209.392 72.4453 211.738 77.9493 212.421 84.52C216.432 84.264 221.21 83.4107 226.757 81.96C227.44 81.7893 228.037 81.704 228.549 81.704ZM186.565 108.072C189.296 108.072 191.642 106.963 193.605 104.744C195.653 102.525 197.018 99.3253 197.701 95.144C195.056 93.352 193.008 91.0053 191.557 88.104C190.192 85.2027 189.509 82.1307 189.509 78.888C189.509 77.5227 189.637 76.1573 189.893 74.792H189.253C185.84 74.792 182.981 76.456 180.677 79.784C178.458 83.0267 177.349 87.6347 177.349 93.608C177.349 98.3013 178.245 101.885 180.037 104.36C181.914 106.835 184.09 108.072 186.565 108.072ZM275.419 107.688C278.918 108.371 280.667 110.291 280.667 113.448C280.667 115.581 279.686 117.501 277.723 119.208C275.846 120.829 273.115 121.64 269.531 121.64C263.387 121.64 258.352 119.763 254.427 116.008C250.587 112.168 248.667 107.176 248.667 101.032C248.667 97.704 250.374 95.3147 253.787 93.864C257.542 92.2427 260.23 90.536 261.851 88.744C263.472 86.8667 264.283 84.6053 264.283 81.96C264.283 80.424 263.942 79.272 263.259 78.504C262.662 77.736 261.894 77.352 260.955 77.352C258.651 77.352 256.091 79.016 253.275 82.344C250.544 85.672 247.984 89.9813 245.595 95.272C243.206 100.477 241.328 105.853 239.963 111.4C239.024 115.411 237.915 118.141 236.635 119.592C235.44 120.957 233.52 121.64 230.875 121.64C228.23 121.64 226.267 120.701 224.987 118.824C223.792 116.861 222.982 113.875 222.555 109.864C222.128 105.853 221.915 99.9653 221.915 92.2C221.915 79.0587 223.238 65.3627 225.883 51.112C228.614 36.8613 232.582 24.9147 237.787 15.272C243.078 5.54399 249.392 0.679993 256.731 0.679993C260.656 0.679993 263.814 2.38666 266.203 5.8C268.678 9.12799 269.915 13.48 269.915 18.856C269.915 27.4747 267.398 36.4347 262.363 45.736C257.328 54.952 249.136 65.7467 237.787 78.12C237.531 82.5573 237.403 87.1227 237.403 91.816C241.499 81.1493 246.192 73.4267 251.483 68.648C256.774 63.784 261.723 61.352 266.331 61.352C270.598 61.352 274.011 62.8027 276.571 65.704C279.216 68.6053 280.539 72.1893 280.539 76.456C280.539 81.1493 279.344 85.4587 276.955 89.384C274.566 93.3093 270.47 96.808 264.667 99.88C265.179 102.44 266.203 104.232 267.739 105.256C269.36 106.195 271.92 107.005 275.419 107.688ZM254.043 13.352C252.507 13.352 250.8 15.5707 248.923 20.008C247.046 24.36 245.211 30.2907 243.419 37.8C241.712 45.224 240.304 53.3307 239.195 62.12C244.486 55.8907 248.838 49.1067 252.251 41.768C255.75 34.4293 257.499 27.7733 257.499 21.8C257.499 19.0693 257.2 16.9787 256.603 15.528C256.006 14.0773 255.152 13.352 254.043 13.352ZM378.732 13.224C380.951 13.224 382.828 13.7787 384.364 14.888C385.9 15.912 386.668 17.192 386.668 18.728C386.668 21.4587 385.815 23.6773 384.108 25.384C382.401 27.0053 379.969 27.816 376.812 27.816C371.863 27.816 368.108 27.8587 365.548 27.944C365.377 28.968 364.609 33.576 363.244 41.768C361.708 50.8987 360.769 56.488 360.428 58.536L357.74 75.304C355.863 87.848 354.369 98.344 353.26 106.792C355.052 106.707 357.484 106.664 360.556 106.664C365.079 106.664 368.151 107.261 369.772 108.456C371.393 109.651 372.204 111.443 372.204 113.832C372.204 116.051 371.308 117.928 369.516 119.464C367.809 121 365.377 121.768 362.22 121.768C360.087 121.768 356.716 121.683 352.108 121.512C347.841 121.341 345.025 121.256 343.66 121.256C338.284 121.256 332.396 121.725 325.996 122.664C323.18 123.091 321.175 123.304 319.98 123.304C318.103 123.304 316.524 122.792 315.244 121.768C313.964 120.744 313.324 119.251 313.324 117.288C313.324 114.216 314.689 111.827 317.42 110.12C320.151 108.413 323.991 107.517 328.94 107.432L334.956 107.304L335.34 104.488C337.388 90.8347 338.881 81.192 339.82 75.56L342.636 58.792C344.343 48.8933 345.879 38.696 347.244 28.2L336.492 28.328C333.42 28.328 331.287 27.8587 330.092 26.92C328.983 25.896 328.428 24.488 328.428 22.696C328.428 16.8933 332.609 13.7787 340.972 13.352C344.897 13.1813 349.676 13.096 355.308 13.096L378.732 13.224ZM406.139 73.512C405.968 77.7787 405.883 81.1067 405.883 83.496C405.883 89.64 406.182 94.4613 406.779 97.96C407.462 101.373 408.528 103.848 409.979 105.384C411.515 106.835 413.606 107.56 416.251 107.56C417.616 107.56 419.238 107.133 421.115 106.28C422.992 105.427 424.699 104.317 426.235 102.952C427.174 102.099 428.112 101.672 429.051 101.672C430.075 101.672 430.886 102.269 431.483 103.464C432.166 104.573 432.507 105.939 432.507 107.56C432.507 109.181 432.166 110.76 431.483 112.296C430.886 113.832 429.947 115.112 428.667 116.136C424.23 119.805 419.195 121.64 413.563 121.64C405.456 121.64 399.526 118.269 395.771 111.528C392.016 104.701 390.139 95.8267 390.139 84.904C390.139 81.1493 390.267 77.352 390.523 73.512H385.531C382.971 73.512 381.222 73.0427 380.283 72.104C379.43 71.1653 379.003 69.672 379.003 67.624C379.003 62.8453 380.923 60.456 384.763 60.456H392.059C393.51 51.0693 395.728 42.4933 398.715 34.728C401.702 26.9627 405.286 20.776 409.467 16.168C413.734 11.56 418.299 9.256 423.163 9.256C426.747 9.256 429.563 10.8347 431.611 13.992C433.659 17.1493 434.683 21.1173 434.683 25.896C434.683 39.1227 429.136 50.6427 418.043 60.456H432.379C433.744 60.456 434.726 60.7547 435.323 61.352C435.92 61.9493 436.219 63.0587 436.219 64.68C436.219 70.568 431.398 73.512 421.755 73.512H406.139ZM419.707 21.544C418.427 21.544 416.976 23.1653 415.355 26.408C413.819 29.5653 412.326 34.0027 410.875 39.72C409.51 45.352 408.358 51.624 407.419 58.536C412.454 54.184 416.208 49.32 418.683 43.944C421.243 38.4827 422.523 33.5333 422.523 29.096C422.523 24.0613 421.584 21.544 419.707 21.544Z" fill="#E1E8ED"/>
</svg>
